<mxfile host="app.diagrams.net" modified="2024-04-16T17:07:09.655Z" agent="Mozilla/5.0 (Windows NT 10.0; Win64; x64) AppleWebKit/537.36 (KHTML, like Gecko) Chrome/121.0.0.0 Safari/537.36 OPR/107.0.0.0 (Edition Yx GX)" version="24.2.3" etag="LKURblItKAYD8rNoNjoP" type="github">
  <diagram name="Страница — 1" id="SMwLge1tAsrmJe0TR6z_">
    <mxGraphModel>
      <root>
        <mxCell id="0" />
        <mxCell id="1" parent="0" />
      </root>
    </mxGraphModel>
  </diagram>
</mxfile>
